<svg width="64" height="40" viewBox="0 0 64 40" fill="none" xmlns="http://www.w3.org/2000/svg">
<g id="Vector">
<path d="M0 18.7347V0H7.19595C8.57933 0 9.75787 0.271385 10.7316 0.814155C11.7053 1.35083 12.4475 2.0979 12.9581 3.05537C13.4746 4.00674 13.7329 5.10448 13.7329 6.34858C13.7329 7.59268 13.4716 8.69042 12.9491 9.64179C12.4267 10.5932 11.6697 11.3341 10.6781 11.8647C9.69256 12.3953 8.49918 12.6606 7.09799 12.6606H2.51146V9.48628H6.47457C7.21673 9.48628 7.82827 9.35516 8.30919 9.09292C8.79604 8.82459 9.15821 8.45563 9.3957 7.98604C9.63913 7.51035 9.76084 6.96453 9.76084 6.34858C9.76084 5.72653 9.63913 5.18376 9.3957 4.72027C9.15821 4.25068 8.79604 3.88782 8.30919 3.63168C7.82233 3.36944 7.20486 3.23833 6.45676 3.23833H3.85625V18.7347H0Z" fill="white"/>
<path d="M19.6998 19C18.827 19 18.0492 18.8445 17.3665 18.5335C16.6837 18.2163 16.1434 17.7498 15.7456 17.1338C15.3537 16.5118 15.1578 15.7373 15.1578 14.8103C15.1578 14.0297 15.2973 13.3741 15.5764 12.8435C15.8554 12.313 16.2354 11.8861 16.7163 11.5628C17.1973 11.2396 17.7435 10.9957 18.355 10.831C18.9725 10.6663 19.6197 10.5505 20.2965 10.4834C21.0921 10.398 21.7333 10.3187 22.2202 10.2455C22.707 10.1663 23.0603 10.0504 23.28 9.89793C23.4996 9.74547 23.6095 9.51982 23.6095 9.22099V9.16611C23.6095 8.58674 23.4314 8.1385 23.0751 7.82138C22.7248 7.50425 22.2261 7.34569 21.5789 7.34569C20.8962 7.34569 20.3529 7.5012 19.9492 7.81223C19.5454 8.11716 19.2783 8.50136 19.1476 8.96485L15.6387 8.67212C15.8168 7.81833 16.1671 7.0804 16.6896 6.45835C17.2121 5.8302 17.886 5.34842 18.7113 5.013C19.5425 4.67148 20.5043 4.50072 21.5968 4.50072C22.3567 4.50072 23.084 4.5922 23.7787 4.77516C24.4793 4.95811 25.0997 5.2417 25.64 5.6259C26.1863 6.01011 26.6167 6.50409 26.9314 7.10785C27.2461 7.7055 27.4034 8.42208 27.4034 9.25758V18.7347H23.8054V16.7862H23.6985C23.4789 17.2253 23.185 17.6126 22.8169 17.948C22.4488 18.2773 22.0064 18.5365 21.4899 18.7256C20.9733 18.9085 20.3767 19 19.6998 19ZM20.7863 16.3105C21.3444 16.3105 21.8372 16.1977 22.2647 15.9721C22.6922 15.7403 23.0276 15.4293 23.2711 15.039C23.5145 14.6487 23.6362 14.2065 23.6362 13.7126V12.2215C23.5175 12.3008 23.3542 12.3739 23.1464 12.441C22.9445 12.502 22.7159 12.5599 22.4606 12.6148C22.2053 12.6636 21.95 12.7094 21.6947 12.752C21.4394 12.7886 21.2079 12.8222 21.0001 12.8527C20.5548 12.9198 20.1659 13.0265 19.8334 13.1728C19.5009 13.3192 19.2426 13.5174 19.0586 13.7675C18.8745 14.0114 18.7825 14.3163 18.7825 14.6822C18.7825 15.2128 18.9695 15.6184 19.3436 15.8989C19.7236 16.1733 20.2045 16.3105 20.7863 16.3105Z" fill="white"/>
<path d="M30.3468 18.7347V4.68368H34.0249V7.13529H34.1674C34.4168 6.2632 34.8353 5.60456 35.4231 5.15937C36.0109 4.70807 36.6878 4.48243 37.4537 4.48243C37.6437 4.48243 37.8485 4.49462 38.0682 4.51902C38.2879 4.54341 38.4808 4.57695 38.6471 4.61964V8.07752C38.4689 8.02263 38.2225 7.97384 37.9079 7.93115C37.5932 7.88846 37.3052 7.86712 37.044 7.86712C36.4859 7.86712 35.9872 7.99214 35.5478 8.24218C35.1144 8.48612 34.77 8.82764 34.5147 9.26673C34.2654 9.70583 34.1407 10.212 34.1407 10.7853V18.7347H30.3468Z" fill="white"/>
<path d="M48.5704 4.68368V7.61098H40.3325V4.68368H48.5704ZM42.2027 1.31728H45.9966V14.4169C45.9966 14.7768 46.0501 15.0573 46.1569 15.2585C46.2638 15.4537 46.4122 15.5909 46.6022 15.6702C46.7982 15.7495 47.0238 15.7891 47.2791 15.7891C47.4572 15.7891 47.6353 15.7739 47.8134 15.7434C47.9916 15.7068 48.1281 15.6793 48.2231 15.661L48.8198 18.5609C48.6298 18.6219 48.3626 18.692 48.0183 18.7713C47.6739 18.8567 47.2553 18.9085 46.7625 18.9268C45.8482 18.9634 45.0467 18.8384 44.358 18.5518C43.6752 18.2651 43.1438 17.8199 42.7638 17.2162C42.3838 16.6124 42.1968 15.8501 42.2027 14.9292V1.31728Z" fill="white"/>
<path d="M55.1296 10.6115V18.7347H51.3357V0H55.0227V7.16274H55.1831C55.4918 6.33333 55.9905 5.68384 56.6792 5.21425C57.368 4.73857 58.2318 4.50072 59.2709 4.50072C60.2208 4.50072 61.0491 4.71417 61.7556 5.14107C62.4681 5.56187 63.0202 6.16867 63.4121 6.96148C63.8099 7.7482 64.0058 8.69042 63.9999 9.78816V18.7347H60.206V10.4834C60.2119 9.6174 59.9982 8.94351 59.5647 8.46172C59.1373 7.97994 58.5376 7.73905 57.7658 7.73905C57.2492 7.73905 56.792 7.85187 56.3942 8.07752C56.0024 8.30316 55.6937 8.63248 55.468 9.06548C55.2484 9.49238 55.1356 10.0077 55.1296 10.6115Z" fill="white"/>
<path d="M0 20.1199H5.26595L10.8277 33.2903H11.0644L16.6262 20.1199H21.8921V39.7224H17.7504V26.9635H17.5827L12.3562 39.6267H9.5359L4.3094 26.9157H4.14176V39.7224H0V20.1199Z" fill="#FF0000"/>
<path d="M25.3313 39.7224V25.0205H29.5322V39.7224H25.3313ZM27.4416 23.1253C26.8171 23.1253 26.2813 22.9243 25.8342 22.5223C25.3937 22.1139 25.1735 21.6258 25.1735 21.0579C25.1735 20.4964 25.3937 20.0146 25.8342 19.6126C26.2813 19.2042 26.8171 19 27.4416 19C28.0662 19 28.5987 19.2042 29.0391 19.6126C29.4862 20.0146 29.7097 20.4964 29.7097 21.0579C29.7097 21.6258 29.4862 22.1139 29.0391 22.5223C28.5987 22.9243 28.0662 23.1253 27.4416 23.1253Z" fill="#FF0000"/>
<path d="M40.9541 25.0205V28.0834H31.8324V25.0205H40.9541ZM33.9032 21.4982H38.1042V35.2046C38.1042 35.5811 38.1633 35.8747 38.2817 36.0852C38.4 36.2894 38.5644 36.433 38.7747 36.516C38.9917 36.5989 39.2415 36.6404 39.5242 36.6404C39.7214 36.6404 39.9186 36.6244 40.1159 36.5925C40.3131 36.5542 40.4643 36.5255 40.5695 36.5064L41.2302 39.5406C41.0198 39.6044 40.724 39.6778 40.3427 39.7607C39.9614 39.85 39.4979 39.9043 38.9522 39.9234C37.9398 39.9617 37.0523 39.8309 36.2897 39.531C35.5336 39.2311 34.9452 38.7653 34.5245 38.1335C34.1037 37.5018 33.8967 36.7042 33.9032 35.7407V21.4982Z" fill="#FF0000"/>
<path d="M48.0099 40C47.0435 40 46.1822 39.8373 45.4262 39.5119C44.6702 39.18 44.0719 38.6919 43.6314 38.0474C43.1975 37.3965 42.9806 36.5861 42.9806 35.6162C42.9806 34.7995 43.1351 34.1135 43.4441 33.5583C43.7531 33.0032 44.1738 32.5565 44.7063 32.2183C45.2388 31.8801 45.8437 31.6249 46.5208 31.4526C47.2045 31.2803 47.9211 31.1591 48.6706 31.0889C49.5515 30.9995 50.2615 30.9166 50.8006 30.84C51.3397 30.7571 51.7309 30.6358 51.9741 30.4763C52.2174 30.3168 52.339 30.0807 52.339 29.768V29.7106C52.339 29.1044 52.1418 28.6354 51.7473 28.3036C51.3594 27.9717 50.8072 27.8058 50.0906 27.8058C49.3346 27.8058 48.733 27.9686 48.286 28.294C47.8389 28.613 47.5431 29.015 47.3985 29.5L43.5131 29.1937C43.7103 28.3004 44.0982 27.5283 44.6767 26.8774C45.2553 26.2201 46.0014 25.716 46.9153 25.3651C47.8356 25.0077 48.9007 24.8291 50.1103 24.8291C50.9518 24.8291 51.7572 24.9248 52.5264 25.1162C53.3021 25.3077 53.9891 25.6044 54.5874 26.0064C55.1922 26.4084 55.6688 26.9253 56.0173 27.557C56.3657 28.1823 56.5399 28.9321 56.5399 29.8063V39.7224H52.5559V37.6837H52.4376C52.1943 38.1431 51.8689 38.5483 51.4613 38.8993C51.0537 39.2438 50.5639 39.515 49.992 39.7129C49.42 39.9043 48.7593 40 48.0099 40ZM49.2129 37.186C49.8309 37.186 50.3766 37.0679 50.8499 36.8318C51.3233 36.5893 51.6947 36.2639 51.9643 35.8555C52.2338 35.4471 52.3686 34.9845 52.3686 34.4676V32.9075C52.2371 32.9904 52.0563 33.067 51.8262 33.1372C51.6027 33.201 51.3496 33.2616 51.0669 33.3191C50.7842 33.3701 50.5015 33.418 50.2188 33.4626C49.9361 33.5009 49.6797 33.536 49.4496 33.5679C48.9565 33.6381 48.5259 33.7498 48.1578 33.9029C47.7896 34.0561 47.5036 34.2634 47.2998 34.5251C47.096 34.7803 46.9941 35.0994 46.9941 35.4822C46.9941 36.0374 47.2012 36.4617 47.6154 36.7552C48.0362 37.0424 48.5687 37.186 49.2129 37.186Z" fill="#FF0000"/>
<path d="M64 20.1199V39.7224H59.7991V20.1199H64Z" fill="#FF0000"/>
</g>
</svg>
