<svg xmlns="http://www.w3.org/2000/svg" width="52" height="33" viewBox="0 0 52 33" fill="none">
  <path d="M0.525925 15V0.454544H6.26456C7.36778 0.454544 8.30765 0.665245 9.08416 1.08665C9.86068 1.50331 10.4525 2.08333 10.8597 2.8267C11.2717 3.56534 11.4776 4.41761 11.4776 5.38352C11.4776 6.34943 11.2693 7.2017 10.8526 7.94034C10.436 8.67898 9.83227 9.25426 9.04155 9.66619C8.25556 10.0781 7.30386 10.2841 6.18644 10.2841H2.52877V7.8196H5.68928C6.28113 7.8196 6.76882 7.7178 7.15235 7.5142C7.5406 7.30587 7.82943 7.01941 8.01882 6.65483C8.21295 6.28551 8.31002 5.86174 8.31002 5.38352C8.31002 4.90057 8.21295 4.47916 8.01882 4.11932C7.82943 3.75473 7.5406 3.47301 7.15235 3.27415C6.76409 3.07055 6.27166 2.96875 5.67507 2.96875H3.60121V15H0.525925Z" fill="white"/>
  <path d="M16.2362 15.206C15.5401 15.206 14.9199 15.0852 14.3754 14.8437C13.8308 14.5975 13.4 14.2353 13.0827 13.7571C12.7702 13.2741 12.614 12.6728 12.614 11.9531C12.614 11.3471 12.7253 10.8381 12.9478 10.4261C13.1703 10.0142 13.4734 9.68276 13.8569 9.43182C14.2404 9.18087 14.676 8.99148 15.1637 8.86364C15.6561 8.73579 16.1722 8.64583 16.712 8.59375C17.3465 8.52746 17.8578 8.46591 18.2461 8.40909C18.6344 8.34754 18.9161 8.25757 19.0913 8.1392C19.2665 8.02083 19.354 7.84564 19.354 7.61364V7.57102C19.354 7.12121 19.212 6.7732 18.9279 6.52699C18.6486 6.28077 18.2508 6.15767 17.7347 6.15767C17.1902 6.15767 16.757 6.27841 16.435 6.51989C16.113 6.75663 15.9 7.05492 15.7958 7.41477L12.9975 7.1875C13.1396 6.52462 13.4189 5.9517 13.8356 5.46875C14.2523 4.98106 14.7897 4.60701 15.4478 4.34659C16.1107 4.08144 16.8777 3.94886 17.7489 3.94886C18.355 3.94886 18.935 4.01989 19.489 4.16193C20.0477 4.30398 20.5425 4.52415 20.9734 4.82244C21.409 5.12074 21.7522 5.50426 22.0032 5.97301C22.2541 6.43703 22.3796 6.99337 22.3796 7.64204V15H19.5103V13.4872H19.4251C19.2499 13.8281 19.0155 14.1288 18.7219 14.3892C18.4284 14.6449 18.0756 14.8461 17.6637 14.9929C17.2518 15.1349 16.7759 15.206 16.2362 15.206ZM17.1026 13.1179C17.5477 13.1179 17.9407 13.0303 18.2816 12.8551C18.6225 12.6752 18.89 12.4337 19.0842 12.1307C19.2783 11.8277 19.3754 11.4844 19.3754 11.1009V9.94318C19.2807 10.0047 19.1505 10.0616 18.9847 10.1136C18.8237 10.161 18.6415 10.206 18.4379 10.2486C18.2343 10.2865 18.0307 10.322 17.8271 10.3551C17.6235 10.3835 17.4388 10.4096 17.2731 10.4332C16.918 10.4853 16.6078 10.5682 16.3427 10.6818C16.0775 10.7955 15.8716 10.9493 15.7248 11.1435C15.578 11.3329 15.5046 11.5696 15.5046 11.8537C15.5046 12.2656 15.6538 12.5805 15.9521 12.7983C16.2551 13.0114 16.6386 13.1179 17.1026 13.1179Z" fill="white"/>
  <path d="M24.7269 15V4.09091H27.6602V5.99432H27.7738C27.9727 5.31723 28.3065 4.80587 28.7752 4.46023C29.244 4.10985 29.7837 3.93466 30.3945 3.93466C30.546 3.93466 30.7094 3.94413 30.8846 3.96307C31.0598 3.98201 31.2137 4.00805 31.3462 4.04119V6.72585C31.2042 6.68324 31.0077 6.64536 30.7567 6.61221C30.5058 6.57907 30.2762 6.5625 30.0678 6.5625C29.6228 6.5625 29.225 6.65956 28.8746 6.85369C28.529 7.04309 28.2544 7.30824 28.0508 7.64915C27.8519 7.99006 27.7525 8.38305 27.7525 8.82812V15H24.7269Z" fill="white"/>
  <path d="M39.2599 4.09091V6.36364H32.6903V4.09091H39.2599ZM34.1818 1.47727H37.2074V11.6477C37.2074 11.9271 37.25 12.1449 37.3352 12.3011C37.4205 12.4527 37.5388 12.5592 37.6903 12.6207C37.8466 12.6823 38.0265 12.7131 38.2301 12.7131C38.3722 12.7131 38.5142 12.7012 38.6562 12.6776C38.7983 12.6491 38.9072 12.6278 38.983 12.6136L39.4588 14.8651C39.3073 14.9124 39.0942 14.9669 38.8196 15.0284C38.545 15.0947 38.2112 15.1349 37.8182 15.1491C37.089 15.1776 36.4498 15.0805 35.9006 14.858C35.3561 14.6354 34.9323 14.2898 34.6293 13.821C34.3262 13.3523 34.1771 12.7604 34.1818 12.0455V1.47727Z" fill="white"/>
  <path d="M44.4908 8.69318V15H41.4652V0.454544H44.4055V6.01562H44.5334C44.7796 5.37168 45.1773 4.86742 45.7266 4.50284C46.2758 4.13352 46.9647 3.94886 47.7933 3.94886C48.5509 3.94886 49.2114 4.11458 49.7749 4.44602C50.343 4.77273 50.7834 5.24384 51.0959 5.85937C51.4131 6.47017 51.5694 7.2017 51.5646 8.05398V15H48.5391V8.59375C48.5438 7.9214 48.3733 7.3982 48.0277 7.02415C47.6868 6.65009 47.2086 6.46307 46.593 6.46307C46.1811 6.46307 45.8165 6.55066 45.4993 6.72585C45.1868 6.90104 44.9406 7.15672 44.7607 7.4929C44.5855 7.82434 44.4955 8.22443 44.4908 8.69318Z" fill="white"/>
  <path d="M2.9771 17.4545H6.76971L10.7754 27.2273H10.9458L14.9515 17.4545H18.7441V32H15.7612V22.5327H15.6404L11.8762 31.929H9.84499L6.08079 22.4972H5.96005V32H2.9771V17.4545Z" fill="#FF0000"/>
  <path d="M21.2211 32V21.0909H24.2466V32H21.2211ZM22.7409 19.6847C22.2911 19.6847 21.9052 19.5355 21.5833 19.2372C21.266 18.9342 21.1074 18.572 21.1074 18.1506C21.1074 17.7339 21.266 17.3764 21.5833 17.0781C21.9052 16.7751 22.2911 16.6236 22.7409 16.6236C23.1908 16.6236 23.5743 16.7751 23.8915 17.0781C24.2135 17.3764 24.3745 17.7339 24.3745 18.1506C24.3745 18.572 24.2135 18.9342 23.8915 19.2372C23.5743 19.5355 23.1908 19.6847 22.7409 19.6847Z" fill="#FF0000"/>
  <path d="M32.4728 21.0909V23.3636H25.9032V21.0909H32.4728ZM27.3947 18.4773H30.4203V28.6477C30.4203 28.9271 30.4629 29.1449 30.5481 29.3011C30.6333 29.4527 30.7517 29.5592 30.9032 29.6207C31.0595 29.6823 31.2394 29.7131 31.443 29.7131C31.5851 29.7131 31.7271 29.7012 31.8691 29.6776C32.0112 29.6491 32.1201 29.6278 32.1958 29.6136L32.6717 31.8651C32.5202 31.9124 32.3071 31.9669 32.0325 32.0284C31.7579 32.0947 31.4241 32.1349 31.0311 32.1491C30.3019 32.1776 29.6627 32.0805 29.1135 31.858C28.569 31.6354 28.1452 31.2898 27.8422 30.821C27.5391 30.3523 27.39 29.7604 27.3947 29.0455V18.4773Z" fill="#FF0000"/>
  <path d="M37.5545 32.206C36.8585 32.206 36.2382 32.0852 35.6937 31.8438C35.1492 31.5975 34.7183 31.2353 34.4011 30.7571C34.0886 30.2741 33.9324 29.6728 33.9324 28.9531C33.9324 28.3471 34.0436 27.8381 34.2662 27.4261C34.4887 27.0142 34.7917 26.6828 35.1753 26.4318C35.5588 26.1809 35.9944 25.9915 36.4821 25.8636C36.9745 25.7358 37.4906 25.6458 38.0304 25.5938C38.6648 25.5275 39.1762 25.4659 39.5645 25.4091C39.9527 25.3475 40.2344 25.2576 40.4096 25.1392C40.5848 25.0208 40.6724 24.8456 40.6724 24.6136V24.571C40.6724 24.1212 40.5304 23.7732 40.2463 23.527C39.9669 23.2808 39.5692 23.1577 39.0531 23.1577C38.5086 23.1577 38.0753 23.2784 37.7534 23.5199C37.4314 23.7566 37.2183 24.0549 37.1142 24.4148L34.3159 24.1875C34.4579 23.5246 34.7373 22.9517 35.1539 22.4688C35.5706 21.9811 36.108 21.607 36.7662 21.3466C37.429 21.0814 38.1961 20.9489 39.0673 20.9489C39.6734 20.9489 40.2534 21.0199 40.8074 21.1619C41.3661 21.304 41.8609 21.5241 42.2917 21.8224C42.7273 22.1207 43.0706 22.5043 43.3216 22.973C43.5725 23.437 43.698 23.9934 43.698 24.642V32H40.8287V30.4872H40.7434C40.5682 30.8281 40.3339 31.1288 40.0403 31.3892C39.7467 31.6449 39.394 31.8461 38.9821 31.9929C38.5701 32.1349 38.0943 32.206 37.5545 32.206ZM38.421 30.1179C38.8661 30.1179 39.2591 30.0303 39.6 29.8551C39.9409 29.6752 40.2084 29.4337 40.4025 29.1307C40.5967 28.8276 40.6937 28.4844 40.6937 28.1009V26.9432C40.599 27.0047 40.4688 27.0616 40.3031 27.1136C40.1421 27.161 39.9598 27.206 39.7562 27.2486C39.5526 27.2865 39.349 27.322 39.1454 27.3551C38.9418 27.3835 38.7572 27.4096 38.5914 27.4332C38.2363 27.4853 37.9262 27.5682 37.661 27.6818C37.3959 27.7955 37.1899 27.9493 37.0431 28.1435C36.8964 28.3329 36.823 28.5696 36.823 28.8537C36.823 29.2656 36.9721 29.5805 37.2704 29.7983C37.5735 30.0114 37.957 30.1179 38.421 30.1179Z" fill="#FF0000"/>
  <path d="M49.0708 17.4545V32H46.0453V17.4545H49.0708Z" fill="#FF0000"/>
</svg>